<?xml version="1.0" encoding="utf-8"?>
<!-- Generator: Adobe Illustrator 16.0.4, SVG Export Plug-In . SVG Version: 6.00 Build 0)  -->
<!DOCTYPE svg PUBLIC "-//W3C//DTD SVG 1.1//EN" "http://www.w3.org/Graphics/SVG/1.1/DTD/svg11.dtd">
<svg version="1.1" id="Layer_1" xmlns="http://www.w3.org/2000/svg" xmlns:xlink="http://www.w3.org/1999/xlink" x="0px" y="0px"
	 width="75px" height="75px" viewBox="0 0 75 75" enable-background="new 0 0 75 75" xml:space="preserve">
<rect x="-0.173" y="-0.181" fill="#2AA8E0" width="75.361" height="75.362"/>
<path fill="#FFFFFF" d="M62.626,21.918c-1.849,0.82-3.836,1.375-5.92,1.623c2.128-1.276,3.765-3.294,4.532-5.702
	c-1.989,1.181-4.194,2.04-6.543,2.502c-1.882-2.005-4.562-3.256-7.525-3.256c-5.692,0-10.308,4.616-10.308,10.307
	c0,0.81,0.091,1.594,0.266,2.348c-8.565-0.428-16.159-4.531-21.245-10.77c-0.886,1.525-1.395,3.294-1.395,5.184
	c0,3.575,1.819,6.732,4.583,8.579c-1.688-0.052-3.277-0.519-4.667-1.29v0.13c0,4.993,3.554,9.16,8.267,10.107
	c-0.864,0.234-1.777,0.363-2.716,0.363c-0.663,0-1.311-0.066-1.938-0.188c1.311,4.096,5.117,7.074,9.627,7.16
	c-3.525,2.764-7.969,4.412-12.802,4.412c-0.831,0-1.65-0.051-2.457-0.145c4.561,2.922,9.979,4.629,15.802,4.629
	c18.958,0,29.325-15.703,29.325-29.325c0-0.445-0.012-0.89-0.028-1.335C59.495,25.802,61.241,23.986,62.626,21.918z"/>
</svg>
