<?xml version="1.0" encoding="utf-8"?>
<!-- Generator: Adobe Illustrator 16.0.4, SVG Export Plug-In . SVG Version: 6.00 Build 0)  -->
<!DOCTYPE svg PUBLIC "-//W3C//DTD SVG 1.1//EN" "http://www.w3.org/Graphics/SVG/1.1/DTD/svg11.dtd">
<svg version="1.1" id="Layer_1" xmlns="http://www.w3.org/2000/svg" xmlns:xlink="http://www.w3.org/1999/xlink" x="0px" y="0px"
	 width="75px" height="75px" viewBox="0 0 75 75" enable-background="new 0 0 75 75" xml:space="preserve">
<rect x="-0.18" y="-0.181" fill="#181617" width="75.359" height="75.361"/>
<path fill="#FFFFFF" d="M37.5,11.972c-14.457,0-26.178,11.719-26.178,26.182c0,11.561,7.498,21.371,17.902,24.836
	c1.311,0.238,1.788-0.572,1.788-1.264c0-0.621-0.021-2.268-0.036-4.453c-7.281,1.582-8.816-3.508-8.816-3.508
	c-1.191-3.023-2.908-3.826-2.908-3.826c-2.376-1.627,0.182-1.594,0.182-1.594c2.629,0.186,4.011,2.697,4.011,2.697
	c2.333,4.002,6.126,2.842,7.619,2.174c0.235-1.693,0.911-2.842,1.659-3.498c-5.813-0.658-11.924-2.91-11.924-12.939
	c0-2.854,1.021-5.193,2.692-7.021c-0.268-0.664-1.165-3.324,0.259-6.93c0,0,2.195-0.703,7.198,2.686
	c2.088-0.582,4.33-0.873,6.554-0.883c2.224,0.01,4.464,0.301,6.552,0.883c5.001-3.389,7.196-2.686,7.196-2.686
	c1.426,3.605,0.528,6.266,0.258,6.93c1.675,1.828,2.691,4.168,2.691,7.021c0,10.059-6.123,12.271-11.954,12.92
	c0.938,0.809,1.778,2.402,1.778,4.846c0,3.5-0.032,6.322-0.032,7.182c0,0.699,0.474,1.512,1.801,1.256
	c10.392-3.465,17.886-13.271,17.886-24.828C63.678,23.69,51.961,11.972,37.5,11.972"/>
</svg>
