<?xml version="1.0" encoding="utf-8"?>
<!-- Generator: Adobe Illustrator 16.0.4, SVG Export Plug-In . SVG Version: 6.00 Build 0)  -->
<!DOCTYPE svg PUBLIC "-//W3C//DTD SVG 1.1//EN" "http://www.w3.org/Graphics/SVG/1.1/DTD/svg11.dtd">
<svg version="1.1" id="Layer_1" xmlns="http://www.w3.org/2000/svg" xmlns:xlink="http://www.w3.org/1999/xlink" x="0px" y="0px"
	 width="75px" height="75px" viewBox="0 0 75 75" enable-background="new 0 0 75 75" xml:space="preserve">
<polygon fill="#231F20" points="-0.18,75.182 -0.18,75.256 75.256,75.256 75.256,-0.255 -0.255,-0.255 -0.255,75.256 -0.18,75.256 
	-0.18,75.182 -0.105,75.182 -0.105,-0.105 75.105,-0.105 75.105,75.105 -0.18,75.105 -0.18,75.182 -0.105,75.182 "/>
<path fill="#FFFFFF" d="M19.056,12.685h36.891c3.506,0,6.371,2.866,6.371,6.371v36.891c0,3.504-2.865,6.369-6.371,6.369H19.056
	c-3.505,0-6.373-2.865-6.373-6.369V19.056C12.683,15.551,15.551,12.685,19.056,12.685z M48.842,18.197
	c-1.23,0-2.234,1.008-2.234,2.238v5.346c0,1.229,1.004,2.236,2.234,2.236h5.609c1.229,0,2.234-1.005,2.234-2.236v-5.346
	c0-1.23-1.006-2.238-2.234-2.238H48.842z M56.707,33.673H52.34c0.414,1.353,0.639,2.779,0.639,4.262
	c0,8.252-6.91,14.948-15.431,14.948c-8.519,0-15.429-6.695-15.429-14.948c0-1.483,0.226-2.909,0.638-4.262h-4.556v20.968
	c0,1.086,0.886,1.971,1.971,1.971h34.564c1.086,0,1.971-0.885,1.971-1.971V33.673z M37.547,27.735c-5.503,0-9.967,4.323-9.967,9.66
	c0,5.333,4.463,9.66,9.967,9.66c5.505,0,9.971-4.326,9.971-9.66C47.518,32.058,43.053,27.735,37.547,27.735z"/>
</svg>
