<?xml version="1.0" encoding="utf-8"?>
<!-- Generator: Adobe Illustrator 16.0.4, SVG Export Plug-In . SVG Version: 6.00 Build 0)  -->
<!DOCTYPE svg PUBLIC "-//W3C//DTD SVG 1.1//EN" "http://www.w3.org/Graphics/SVG/1.1/DTD/svg11.dtd">
<svg version="1.1" id="Layer_1" xmlns="http://www.w3.org/2000/svg" xmlns:xlink="http://www.w3.org/1999/xlink" x="0px" y="0px"
	 width="75px" height="75px" viewBox="0 0 75 75" enable-background="new 0 0 75 75" xml:space="preserve">
<path fill="#FFFFFF" d="M12.714,29.093h10.633V63.25H12.714V29.093z M18.034,12.112c3.399,0,6.156,2.76,6.156,6.154
	c0,3.397-2.756,6.157-6.156,6.157c-3.412,0-6.163-2.76-6.163-6.157C11.872,14.872,14.623,12.112,18.034,12.112"/>
<path fill="#FFFFFF" d="M30.013,29.093h10.182v4.668h0.146c1.416-2.688,4.884-5.518,10.052-5.518
	c10.748,0,12.736,7.071,12.736,16.271V63.25H52.516V46.643c0-3.965-0.078-9.06-5.521-9.06c-5.528,0-6.371,4.313-6.371,8.767v16.9
	h-10.61V29.093z"/>
</svg>
