<?xml version="1.0" encoding="utf-8"?>
<!-- Generator: Adobe Illustrator 16.0.4, SVG Export Plug-In . SVG Version: 6.00 Build 0)  -->
<!DOCTYPE svg PUBLIC "-//W3C//DTD SVG 1.1//EN" "http://www.w3.org/Graphics/SVG/1.1/DTD/svg11.dtd">
<svg version="1.1" id="Layer_1" xmlns="http://www.w3.org/2000/svg" xmlns:xlink="http://www.w3.org/1999/xlink" x="0px" y="0px"
	 width="1920px" height="1080px" viewBox="0 0 1920 1080" enable-background="new 0 0 1920 1080" xml:space="preserve">
<g id="stars">
	<circle fill="#FFFFFF" cx="203.003" cy="150.36" r="1.5"/>
	<circle fill="#FFFFFF" cx="345.496" cy="203.25" r="1.5"/>
	<circle fill="#FFFFFF" cx="217.252" cy="293.25" r="1.5"/>
	<circle fill="#FFFFFF" cx="220.252" cy="444.75" r="1.5"/>
	<circle fill="#FFFFFF" cx="66.135" cy="553.75" r="1.5"/>
	<circle fill="#FFFFFF" cx="43.876" cy="384.25" r="1.5"/>
	<circle fill="#FFFFFF" cx="114.508" cy="192.25" r="1.5"/>
	<circle fill="#FFFFFF" cx="558.373" cy="72.25" r="1.5"/>
	<circle fill="#FFFFFF" cx="335.376" cy="102.25" r="1.5"/>
	<circle fill="#FFFFFF" cx="472.877" cy="49.75" r="1.5"/>
	<circle fill="#FFFFFF" cx="1405.012" cy="46.75" r="1.5"/>
	<circle fill="#FFFFFF" cx="1528.393" cy="116.25" r="1.5"/>
	<circle fill="#FFFFFF" cx="1628.888" cy="222.25" r="1.5"/>
	<circle fill="#FFFFFF" cx="1665.376" cy="117.75" r="1.5"/>
	<circle fill="#FFFFFF" cx="1827.627" cy="70.75" r="1.5"/>
	<circle fill="#FFFFFF" cx="1876.124" cy="170.25" r="1.5"/>
	<circle fill="#FFFFFF" cx="1839.422" cy="250.854" r="1.5"/>
	<circle fill="#FFFFFF" cx="1849.876" cy="410.75" r="1.5"/>
	<circle fill="#FFFFFF" cx="1781.294" cy="477.25" r="1.5"/>
	<circle fill="#FFFFFF" cx="125.376" cy="51.25" r="1.5"/>
	<circle fill="#FFFFFF" cx="45.376" cy="249.354" r="1.5"/>
</g>
<g id="clouds_x5F_two" opacity="0.3">
	<path fill="#CCCCCC" d="M1587.496,235.583c0,0-20.561,0-27.188,0c-96.831,0-288.146-0.167-288.146-0.167
		c-6.627,0-49.667,0.167-49.667,0.167s4.878-89.667,72.667-89.667c71.248,0,76.248,63.667,76.248,63.667s3.333-29.667,46-30
		c44.01-0.343,50,21.667,50,21.667s9.409-37.52,54.667-38C1591.085,162.519,1587.496,235.583,1587.496,235.583z"/>
	<path fill="#CCCCCC" d="M438.157,513.662c0,0-20.562,0-27.188,0c-96.833,0-288.146-0.167-288.146-0.167
		c-6.627,0-49.667,0.167-49.667,0.167s4.877-89.667,72.667-89.667c71.248,0,76.248,63.667,76.248,63.667s3.332-29.667,46-30
		c44.01-0.343,50,21.667,50,21.667s9.407-37.521,54.666-38C441.745,440.598,438.157,513.662,438.157,513.662z"/>
	<path fill="#CCCCCC" d="M803.189,281.097c0,0-20.562,0-27.188,0c-96.834,0-288.146-0.167-288.146-0.167
		c-6.629,0-49.667,0.167-49.667,0.167s4.877-89.667,72.667-89.667c85.332,0,108.684,58,108.684,58s20.534-28.272,103.648-26.667
		C792.189,224.097,803.189,281.097,803.189,281.097z"/>
	<path fill="#CCCCCC" d="M1685.808,520.583c0,0-20.562,0-27.188,0c-96.834,0-288.146-0.167-288.146-0.167
		c-6.628,0-49.667,0.167-49.667,0.167s4.877-89.667,72.667-89.667c85.333,0,108.684,58,108.684,58s20.535-28.271,103.649-26.667
		C1674.808,463.583,1685.808,520.583,1685.808,520.583z"/>
</g>
<g id="clouds_x5F_one" opacity="0.3">
	<path fill="#CCCCCC" d="M2442.339,265.583c0,0-20.562,0-27.188,0c-96.833,0-288.146-0.167-288.146-0.167
		c-6.627,0-49.667,0.167-49.667,0.167s4.877-89.667,72.667-89.667c71.248,0,76.248,63.667,76.248,63.667s3.332-29.667,46-30
		c44.01-0.343,50,21.667,50,21.667s9.407-37.52,54.666-38C2445.927,192.519,2442.339,265.583,2442.339,265.583z"/>
	<path fill="#CCCCCC" d="M3826.009,483.152c0,0-20.562,0-27.188,0c-96.833,0-288.146-0.169-288.146-0.169
		c-6.627,0-49.668,0.169-49.668,0.169s4.877-89.669,72.668-89.669c71.248,0,76.248,63.669,76.248,63.669s3.332-29.668,46-30
		c44.01-0.347,50,21.666,50,21.666s9.405-37.521,54.666-38C3829.595,410.086,3826.009,483.152,3826.009,483.152z"/>
	<path fill="#CCCCCC" d="M2701.4,513.662c0,0-20.561,0-27.188,0c-96.834,0-288.146-0.167-288.146-0.167
		c-6.628,0-49.667,0.167-49.667,0.167s4.877-89.667,72.667-89.667c85.333,0,108.684,58,108.684,58s20.535-28.272,103.649-26.667
		C2690.4,456.662,2701.4,513.662,2701.4,513.662z"/>
	<path fill="#CCCCCC" d="M3511.897,199.839c0,0-20.562,0-27.188,0c-96.834,0-288.146-0.167-288.146-0.167
		c-6.63,0-49.668,0.167-49.668,0.167s4.877-89.667,72.668-89.667c85.332,0,108.685,58,108.685,58s20.533-28.272,103.647-26.667
		C3500.897,142.839,3511.897,199.839,3511.897,199.839z"/>
</g>
</svg>
